# MagicaVoxel @ Ephtracy

# group
o 

# material
mtllib coin.mtl
usemtl palette

# normals
vn -1 0 0
vn 1 0 0
vn 0 0 1
vn 0 0 -1
vn 0 -1 0
vn 0 1 0

# texcoords
vt 0.0371094 0.5
vt 0.0410156 0.5
vt 0.208984 0.5
vt 0.373047 0.5

# verts
v 1.6 2.2 -2.2
v 1.6 2.2 -2.3
v 1.6 2.7 -2.2
v 1.6 2.7 -2.3
v 1.7 2.1 -2.2
v 1.7 2.1 -2.3
v 1.7 2.2 -2.2
v 1.7 2.2 -2.3
v 1.7 2.7 -2.2
v 1.7 2.7 -2.3
v 1.7 2.8 -2.2
v 1.7 2.8 -2.3
v 1.8 2 -2.2
v 1.8 2 -2.3
v 1.8 2.1 -2.2
v 1.8 2.1 -2.3
v 1.8 2.8 -2.2
v 1.8 2.8 -2.3
v 1.8 2.9 -2.2
v 1.8 2.9 -2.3
v 2 2 -2.2
v 2 2 -2.3
v 2 2.1 -2.2
v 2 2.1 -2.3
v 2 2.8 -2.2
v 2 2.8 -2.3
v 2 2.9 -2.2
v 2 2.9 -2.3
v 2.1 2.1 -2.2
v 2.1 2.1 -2.3
v 2.1 2.2 -2.2
v 2.1 2.2 -2.3
v 2.1 2.7 -2.2
v 2.1 2.7 -2.3
v 2.1 2.8 -2.2
v 2.1 2.8 -2.3
v 2.2 2.2 -2.2
v 2.2 2.2 -2.3
v 2.2 2.7 -2.2
v 2.2 2.7 -2.3
v 1.6 2.2 -2.2
v 1.6 2.7 -2.2
v 1.7 2.1 -2.2
v 1.7 2.2 -2.2
v 1.7 2.3 -2.2
v 1.7 2.6 -2.2
v 1.7 2.7 -2.2
v 1.7 2.8 -2.2
v 1.8 2 -2.2
v 1.8 2.1 -2.2
v 1.8 2.2 -2.2
v 1.8 2.3 -2.2
v 1.8 2.6 -2.2
v 1.8 2.7 -2.2
v 1.8 2.8 -2.2
v 1.8 2.9 -2.2
v 1.9 2.3 -2.2
v 1.9 2.6 -2.2
v 2 2 -2.2
v 2 2.1 -2.2
v 2 2.2 -2.2
v 2 2.3 -2.2
v 2 2.6 -2.2
v 2 2.7 -2.2
v 2 2.8 -2.2
v 2 2.9 -2.2
v 2.1 2.1 -2.2
v 2.1 2.2 -2.2
v 2.1 2.3 -2.2
v 2.1 2.6 -2.2
v 2.1 2.7 -2.2
v 2.1 2.8 -2.2
v 2.2 2.2 -2.2
v 2.2 2.7 -2.2
v 1.6 2.2 -2.3
v 1.6 2.7 -2.3
v 1.7 2.1 -2.3
v 1.7 2.2 -2.3
v 1.7 2.3 -2.3
v 1.7 2.6 -2.3
v 1.7 2.7 -2.3
v 1.7 2.8 -2.3
v 1.8 2 -2.3
v 1.8 2.1 -2.3
v 1.8 2.2 -2.3
v 1.8 2.3 -2.3
v 1.8 2.6 -2.3
v 1.8 2.7 -2.3
v 1.8 2.8 -2.3
v 1.8 2.9 -2.3
v 1.9 2.3 -2.3
v 1.9 2.6 -2.3
v 2 2 -2.3
v 2 2.1 -2.3
v 2 2.2 -2.3
v 2 2.3 -2.3
v 2 2.6 -2.3
v 2 2.7 -2.3
v 2 2.8 -2.3
v 2 2.9 -2.3
v 2.1 2.1 -2.3
v 2.1 2.2 -2.3
v 2.1 2.3 -2.3
v 2.1 2.6 -2.3
v 2.1 2.7 -2.3
v 2.1 2.8 -2.3
v 2.2 2.2 -2.3
v 2.2 2.7 -2.3
v 1.8 2 -2.2
v 2 2 -2.2
v 1.8 2 -2.3
v 2 2 -2.3
v 1.7 2.1 -2.2
v 1.8 2.1 -2.2
v 2 2.1 -2.2
v 2.1 2.1 -2.2
v 1.7 2.1 -2.3
v 1.8 2.1 -2.3
v 2 2.1 -2.3
v 2.1 2.1 -2.3
v 1.6 2.2 -2.2
v 1.7 2.2 -2.2
v 2.1 2.2 -2.2
v 2.2 2.2 -2.2
v 1.6 2.2 -2.3
v 1.7 2.2 -2.3
v 2.1 2.2 -2.3
v 2.2 2.2 -2.3
v 1.6 2.7 -2.2
v 1.7 2.7 -2.2
v 2.1 2.7 -2.2
v 2.2 2.7 -2.2
v 1.6 2.7 -2.3
v 1.7 2.7 -2.3
v 2.1 2.7 -2.3
v 2.2 2.7 -2.3
v 1.7 2.8 -2.2
v 1.8 2.8 -2.2
v 2 2.8 -2.2
v 2.1 2.8 -2.2
v 1.7 2.8 -2.3
v 1.8 2.8 -2.3
v 2 2.8 -2.3
v 2.1 2.8 -2.3
v 1.8 2.9 -2.2
v 2 2.9 -2.2
v 1.8 2.9 -2.3
v 2 2.9 -2.3

# faces
f 3/4/1 2/4/1 1/4/1
f 4/4/1 2/4/1 3/4/1
f 7/4/1 6/4/1 5/4/1
f 8/4/1 6/4/1 7/4/1
f 11/4/1 10/4/1 9/4/1
f 12/4/1 10/4/1 11/4/1
f 15/4/1 14/4/1 13/4/1
f 16/4/1 14/4/1 15/4/1
f 19/4/1 18/4/1 17/4/1
f 20/4/1 18/4/1 19/4/1
f 21/4/2 22/4/2 23/4/2
f 23/4/2 22/4/2 24/4/2
f 25/4/2 26/4/2 27/4/2
f 27/4/2 26/4/2 28/4/2
f 29/4/2 30/4/2 31/4/2
f 31/4/2 30/4/2 32/4/2
f 33/4/2 34/4/2 35/4/2
f 35/4/2 34/4/2 36/4/2
f 37/4/2 38/4/2 39/4/2
f 39/4/2 38/4/2 40/4/2
f 44/4/3 42/4/3 41/4/3
f 45/4/3 42/4/3 44/4/3
f 46/4/3 42/4/3 45/4/3
f 47/4/3 42/4/3 46/4/3
f 50/4/3 44/4/3 43/4/3
f 51/2/3 45/2/3 44/2/3
f 51/4/3 44/4/3 50/4/3
f 52/3/3 46/3/3 45/3/3
f 52/2/3 45/2/3 51/2/3
f 53/2/3 47/2/3 46/2/3
f 53/3/3 46/3/3 52/3/3
f 54/4/3 48/4/3 47/4/3
f 54/2/3 47/2/3 53/2/3
f 55/4/3 48/4/3 54/4/3
f 57/1/3 53/1/3 52/1/3
f 57/3/3 52/3/3 51/3/3
f 58/3/3 54/3/3 53/3/3
f 58/1/3 53/1/3 57/1/3
f 59/4/3 50/4/3 49/4/3
f 60/2/3 51/2/3 50/2/3
f 60/4/3 50/4/3 59/4/3
f 61/3/3 57/3/3 51/3/3
f 61/2/3 51/2/3 60/2/3
f 62/2/3 58/2/3 57/2/3
f 62/3/3 57/3/3 61/3/3
f 63/3/3 54/3/3 58/3/3
f 63/2/3 58/2/3 62/2/3
f 64/2/3 55/2/3 54/2/3
f 64/3/3 54/3/3 63/3/3
f 65/4/3 56/4/3 55/4/3
f 65/2/3 55/2/3 64/2/3
f 66/4/3 56/4/3 65/4/3
f 67/4/3 61/4/3 60/4/3
f 68/2/3 62/2/3 61/2/3
f 68/4/3 61/4/3 67/4/3
f 69/3/3 63/3/3 62/3/3
f 69/2/3 62/2/3 68/2/3
f 70/2/3 64/2/3 63/2/3
f 70/3/3 63/3/3 69/3/3
f 71/4/3 65/4/3 64/4/3
f 71/2/3 64/2/3 70/2/3
f 72/4/3 65/4/3 71/4/3
f 73/4/3 69/4/3 68/4/3
f 73/4/3 71/4/3 70/4/3
f 73/4/3 70/4/3 69/4/3
f 74/4/3 71/4/3 73/4/3
f 75/4/4 76/4/4 78/4/4
f 78/4/4 76/4/4 79/4/4
f 79/4/4 76/4/4 80/4/4
f 80/4/4 76/4/4 81/4/4
f 77/4/4 78/4/4 84/4/4
f 78/2/4 79/2/4 85/2/4
f 84/4/4 78/4/4 85/4/4
f 79/3/4 80/3/4 86/3/4
f 85/2/4 79/2/4 86/2/4
f 80/2/4 81/2/4 87/2/4
f 86/3/4 80/3/4 87/3/4
f 81/4/4 82/4/4 88/4/4
f 87/2/4 81/2/4 88/2/4
f 88/4/4 82/4/4 89/4/4
f 86/1/4 87/1/4 91/1/4
f 85/3/4 86/3/4 91/3/4
f 87/3/4 88/3/4 92/3/4
f 91/1/4 87/1/4 92/1/4
f 83/4/4 84/4/4 93/4/4
f 84/2/4 85/2/4 94/2/4
f 93/4/4 84/4/4 94/4/4
f 85/3/4 91/3/4 95/3/4
f 94/2/4 85/2/4 95/2/4
f 91/2/4 92/2/4 96/2/4
f 95/3/4 91/3/4 96/3/4
f 92/3/4 88/3/4 97/3/4
f 96/2/4 92/2/4 97/2/4
f 88/2/4 89/2/4 98/2/4
f 97/3/4 88/3/4 98/3/4
f 89/4/4 90/4/4 99/4/4
f 98/2/4 89/2/4 99/2/4
f 99/4/4 90/4/4 100/4/4
f 94/4/4 95/4/4 101/4/4
f 95/2/4 96/2/4 102/2/4
f 101/4/4 95/4/4 102/4/4
f 96/3/4 97/3/4 103/3/4
f 102/2/4 96/2/4 103/2/4
f 97/2/4 98/2/4 104/2/4
f 103/3/4 97/3/4 104/3/4
f 98/4/4 99/4/4 105/4/4
f 104/2/4 98/2/4 105/2/4
f 105/4/4 99/4/4 106/4/4
f 102/4/4 103/4/4 107/4/4
f 104/4/4 105/4/4 107/4/4
f 103/4/4 104/4/4 107/4/4
f 107/4/4 105/4/4 108/4/4
f 111/4/5 110/4/5 109/4/5
f 112/4/5 110/4/5 111/4/5
f 117/4/5 114/4/5 113/4/5
f 118/4/5 114/4/5 117/4/5
f 119/4/5 116/4/5 115/4/5
f 120/4/5 116/4/5 119/4/5
f 125/4/5 122/4/5 121/4/5
f 126/4/5 122/4/5 125/4/5
f 127/4/5 124/4/5 123/4/5
f 128/4/5 124/4/5 127/4/5
f 129/4/6 130/4/6 133/4/6
f 133/4/6 130/4/6 134/4/6
f 131/4/6 132/4/6 135/4/6
f 135/4/6 132/4/6 136/4/6
f 137/4/6 138/4/6 141/4/6
f 141/4/6 138/4/6 142/4/6
f 139/4/6 140/4/6 143/4/6
f 143/4/6 140/4/6 144/4/6
f 145/4/6 146/4/6 147/4/6
f 147/4/6 146/4/6 148/4/6
